<mxfile host="app.diagrams.net" agent="Mozilla/5.0 (Windows NT 10.0; Win64; x64) AppleWebKit/537.36 (KHTML, like Gecko) Chrome/132.0.0.0 Safari/537.36" version="26.0.11">
  <diagram name="PÃ¡gina-1" id="eltGnicorVr5V49jCETT">
    <mxGraphModel dx="891" dy="446" grid="1" gridSize="10" guides="1" tooltips="1" connect="1" arrows="1" fold="1" page="1" pageScale="1" pageWidth="850" pageHeight="1100" math="0" shadow="0">
      <root>
        <mxCell id="0" />
        <mxCell id="1" parent="0" />
        <mxCell id="jTSlvcatVLy0HkBgPIwp-3" value="" style="edgeStyle=orthogonalEdgeStyle;rounded=0;orthogonalLoop=1;jettySize=auto;html=1;" edge="1" parent="1" source="jTSlvcatVLy0HkBgPIwp-1" target="jTSlvcatVLy0HkBgPIwp-2">
          <mxGeometry relative="1" as="geometry" />
        </mxCell>
        <mxCell id="jTSlvcatVLy0HkBgPIwp-1" value="Inicio" style="ellipse;whiteSpace=wrap;html=1;" vertex="1" parent="1">
          <mxGeometry x="403" y="100" width="95" height="50" as="geometry" />
        </mxCell>
        <mxCell id="jTSlvcatVLy0HkBgPIwp-5" value="" style="edgeStyle=orthogonalEdgeStyle;rounded=0;orthogonalLoop=1;jettySize=auto;html=1;" edge="1" parent="1" source="jTSlvcatVLy0HkBgPIwp-2" target="jTSlvcatVLy0HkBgPIwp-4">
          <mxGeometry relative="1" as="geometry" />
        </mxCell>
        <mxCell id="jTSlvcatVLy0HkBgPIwp-2" value="metros, pulgadas: Real" style="whiteSpace=wrap;html=1;" vertex="1" parent="1">
          <mxGeometry x="390.25" y="180" width="120.5" height="60" as="geometry" />
        </mxCell>
        <mxCell id="jTSlvcatVLy0HkBgPIwp-9" value="" style="edgeStyle=orthogonalEdgeStyle;rounded=0;orthogonalLoop=1;jettySize=auto;html=1;" edge="1" parent="1" source="jTSlvcatVLy0HkBgPIwp-4" target="jTSlvcatVLy0HkBgPIwp-8">
          <mxGeometry relative="1" as="geometry" />
        </mxCell>
        <mxCell id="jTSlvcatVLy0HkBgPIwp-4" value="Imprimir &quot;Ingrese metros&quot;" style="shape=document;whiteSpace=wrap;html=1;boundedLbl=1;" vertex="1" parent="1">
          <mxGeometry x="390.5" y="310" width="120" height="80" as="geometry" />
        </mxCell>
        <mxCell id="jTSlvcatVLy0HkBgPIwp-13" value="" style="edgeStyle=orthogonalEdgeStyle;rounded=0;orthogonalLoop=1;jettySize=auto;html=1;" edge="1" parent="1" source="jTSlvcatVLy0HkBgPIwp-8" target="jTSlvcatVLy0HkBgPIwp-12">
          <mxGeometry relative="1" as="geometry" />
        </mxCell>
        <mxCell id="jTSlvcatVLy0HkBgPIwp-8" value="Leer &quot;metros&quot;" style="shape=parallelogram;perimeter=parallelogramPerimeter;whiteSpace=wrap;html=1;fixedSize=1;" vertex="1" parent="1">
          <mxGeometry x="390" y="470" width="120" height="60" as="geometry" />
        </mxCell>
        <mxCell id="jTSlvcatVLy0HkBgPIwp-15" value="" style="edgeStyle=orthogonalEdgeStyle;rounded=0;orthogonalLoop=1;jettySize=auto;html=1;" edge="1" parent="1" source="jTSlvcatVLy0HkBgPIwp-12" target="jTSlvcatVLy0HkBgPIwp-14">
          <mxGeometry relative="1" as="geometry" />
        </mxCell>
        <mxCell id="jTSlvcatVLy0HkBgPIwp-12" value="pulgadas: metrosx100/2.54" style="whiteSpace=wrap;html=1;" vertex="1" parent="1">
          <mxGeometry x="390" y="610" width="120" height="60" as="geometry" />
        </mxCell>
        <mxCell id="jTSlvcatVLy0HkBgPIwp-17" value="" style="edgeStyle=orthogonalEdgeStyle;rounded=0;orthogonalLoop=1;jettySize=auto;html=1;" edge="1" parent="1" source="jTSlvcatVLy0HkBgPIwp-14">
          <mxGeometry relative="1" as="geometry">
            <mxPoint x="450" y="890" as="targetPoint" />
          </mxGeometry>
        </mxCell>
        <mxCell id="jTSlvcatVLy0HkBgPIwp-14" value="Imprimir &quot;metros convertidos en pulgadas es...&quot;" style="shape=document;whiteSpace=wrap;html=1;boundedLbl=1;" vertex="1" parent="1">
          <mxGeometry x="390" y="740" width="120" height="80" as="geometry" />
        </mxCell>
        <mxCell id="jTSlvcatVLy0HkBgPIwp-18" value="Fin" style="ellipse;whiteSpace=wrap;html=1;" vertex="1" parent="1">
          <mxGeometry x="390.75" y="890" width="120" height="80" as="geometry" />
        </mxCell>
      </root>
    </mxGraphModel>
  </diagram>
</mxfile>
